<svg id="ic-aircraft" xmlns="http://www.w3.org/2000/svg" width="24" height="24" viewBox="0 0 24 24">
  <rect id="Rectangle_1941" data-name="Rectangle 1941" width="24" height="24" fill="#5A5A5A" opacity="0"/>
  <path id="Path_4601" data-name="Path 4601" d="M9.812,2.212l4.9,7.833h5.385a1.469,1.469,0,0,1,0,2.938H14.708l-4.9,7.833H7.854L10.3,12.983H4.917L3.448,14.941H1.979l.979-3.427L1.979,8.087H3.448l1.469,1.958H10.3L7.854,2.212H9.812m0-.979H7.854A.979.979,0,0,0,6.92,2.506l2.05,6.56H5.406L4.231,7.5a.979.979,0,0,0-.783-.392H1.979a.979.979,0,0,0-.942,1.248l.9,3.158-.9,3.158a.979.979,0,0,0,.942,1.248H3.448a.979.979,0,0,0,.783-.392l1.175-1.567H8.97l-2.05,6.56A.979.979,0,0,0,7.854,21.8H9.812a.979.979,0,0,0,.83-.46l4.608-7.373h4.843a2.448,2.448,0,1,0,0-4.9H15.251L10.643,1.69a.979.979,0,0,0-.83-.457Z" transform="translate(-0.021 -0.053)" fill="#5A5A5A"/>
</svg>
